<?xml version="1.0" encoding="UTF-8"?>
<svg xmlns="http://www.w3.org/2000/svg" xmlns:xlink="http://www.w3.org/1999/xlink" viewBox="0 0 26 26" version="1.1" width="50px" height="50px">
<style>.svgpath { fill: #717883}</style><g id="surface1">
<path class="svgpath" d="M 15 0 L 0 3 L 0 23 L 15 26 Z M 16 6 L 16 7.8125 L 16.40625 7.8125 C 16.507813 7.8125 16.59375 7.804688 16.59375 7.90625 L 17.90625 9.1875 C 18.007813 9.289063 18.007813 9.398438 17.90625 9.5 L 17.40625 10 C 17.304688 10.101563 17.195313 10.101563 17.09375 10 L 16.5 9.40625 L 16 9.40625 L 16 12.90625 C 16.898438 13.707031 17.707031 14.292969 17.40625 14.59375 C 17.304688 14.792969 16.699219 14.492188 16 14.09375 L 16 17.6875 L 16.1875 17.6875 C 17.789063 16.488281 19.101563 14.289063 19.5 14.6875 C 20 15.085938 16.804688 19.3125 16.40625 19.3125 L 16 19.3125 L 16 21 L 24.6875 21 C 25.386719 21 26 20.386719 26 19.6875 L 26 7.3125 C 26 6.613281 25.386719 6 24.6875 6 Z M 9.90625 6.40625 L 9.90625 8.59375 L 6.5 8.8125 L 6.5 11.3125 L 9.59375 11.1875 L 9.59375 13.40625 L 6.5 13.40625 L 6.5 16 L 10.09375 16.1875 L 10.09375 18.40625 L 4.40625 17.90625 L 4.40625 7 Z M 20.5 7.8125 L 23.90625 7.8125 C 24.105469 7.8125 24.1875 7.894531 24.1875 8.09375 L 24.1875 11.3125 C 24.1875 11.414063 24.195313 11.5 24.09375 11.5 L 22.8125 12.8125 C 22.710938 12.914063 22.601563 12.914063 22.5 12.8125 L 22 12.40625 C 21.898438 12.304688 21.898438 12.195313 22 12.09375 L 22.59375 11.5 L 22.59375 9.40625 L 20.8125 9.40625 C 19.210938 10.605469 17.898438 12.804688 17.5 12.40625 C 17 12.007813 20.101563 7.914063 20.5 7.8125 Z M 19.8125 12.4375 C 20.605469 12.378906 24.3125 15.21875 24.3125 15.5 L 24.3125 17.59375 L 24.1875 17.59375 L 24.1875 18.90625 C 24.1875 19.105469 24.105469 19.1875 23.90625 19.1875 L 20.6875 19.1875 C 20.585938 19.1875 20.5 19.195313 20.5 19.09375 L 19.1875 17.8125 C 19.085938 17.710938 19.085938 17.601563 19.1875 17.5 L 19.6875 17 C 19.789063 16.898438 19.898438 16.898438 20 17 L 20.59375 17.59375 L 22.6875 17.59375 L 22.6875 15.8125 C 21.488281 14.210938 19.289063 12.898438 19.6875 12.5 C 19.710938 12.46875 19.761719 12.441406 19.8125 12.4375 Z "/>
</g>
</svg>
